<?xml version="1.0" encoding="UTF-8" standalone="no"?>
<!DOCTYPE svg PUBLIC "-//W3C//DTD SVG 1.1//EN" "http://www.w3.org/Graphics/SVG/1.1/DTD/svg11.dtd">

<svg width="80" height="80" viewBox="0 0 80 80" stroke-miterlimit="10" style="fill-rule:nonzero;clip-rule:evenodd;stroke-linecap:round;stroke-linejoin:round;" version="1.1"  xml:space="preserve" xmlns="http://www.w3.org/2000/svg">
<defs>
<radialGradient cx="2329.27" cy="2305.82" gradientTransform="matrix(0.0348613 0 0 -0.03488 -3.5437 83.3779)" gradientUnits="userSpaceOnUse" id="RadialGradient" r="2638.25">
<stop offset="0" stop-color="#e44857"/>
<stop offset="0.47" stop-color="#c711e1"/>
<stop offset="1" stop-color="#7f52ff"/>
</radialGradient>
<linearGradient gradientTransform="matrix(1 0 0 1 25.7371 -3.50591)" gradientUnits="userSpaceOnUse" id="LinearGradient" x1="10.9458" x2="41.6506" y1="39.132" y2="39.132">
<stop offset="0" stop-color="#ff912f"/>
<stop offset="1" stop-color="#000000"/>
</linearGradient>
<linearGradient gradientTransform="matrix(1 0 0 1 -1.51444 -2.51576)" gradientUnits="userSpaceOnUse" id="LinearGradient_2" x1="10.9458" x2="41.6506" y1="39.132" y2="39.132">
<stop offset="0.298868" stop-color="#ff912f"/>
<stop offset="1" stop-color="#000000"/>
</linearGradient>
<linearGradient gradientTransform="matrix(1 0 0 1 41.0895 -3.50591)" gradientUnits="userSpaceOnUse" id="LinearGradient_3" x1="10.9458" x2="41.6506" y1="39.132" y2="39.132">
<stop offset="0" stop-color="#ff912f"/>
<stop offset="1" stop-color="#000000"/>
</linearGradient>
</defs>
<path d="M0 0L80 0L80 80L0 80L0 0Z" fill="url(#RadialGradient)" fill-rule="nonzero" opacity="1" stroke="none"/>
<clipPath id="ArtboardFrame">
<rect height="80" width="80" x="0" y="0"/>
</clipPath>
<g clip-path="url(#ArtboardFrame)" id="Layer-1">
<path d="M1331.77 821.674L2376.32 821.674L2376.32 2347.83L1331.77 2347.83L1331.77 821.674Z" fill="#000002" fill-rule="nonzero" opacity="1" stroke="none"/>
<path d="M1213.54 758.11L1481.97 758.11L1481.97 948.005L1213.54 948.005L1213.54 758.11Z" fill="#000002" fill-rule="nonzero" opacity="1" stroke="none"/>
<path d="M75 75L5 75L5 5L75 5L75 75Z" fill="#000002" fill-rule="nonzero" opacity="1" stroke="none"/>
<path d="M72.9124 7.49409L80 0" fill="none" opacity="1" stroke="#000002" stroke-linecap="butt" stroke-linejoin="round" stroke-width="1"/>
<path d="M72.9124 72.3869L80 80" fill="none" opacity="1" stroke="#000002" stroke-linecap="butt" stroke-linejoin="round" stroke-width="1"/>
<path d="M47.3469 54.6113C47.3469 57.0175 47.9563 58.7324 49.1751 59.7558C50.3938 60.7792 51.7298 61.3769 53.1829 61.5488L53.1829 64.291C50.4016 64.0097 48.1009 63.1933 46.2805 61.8417C44.4602 60.4902 43.5501 58.2675 43.5501 55.1738L43.5501 50.3457C43.5501 48.6425 43.2844 47.2988 42.7532 46.3144C41.7844 44.5175 39.9251 43.4707 37.1751 43.1738L37.1751 40.5019C39.9407 40.1738 41.8001 39.1503 42.7532 37.4316C43.2844 36.4785 43.5501 35.1113 43.5501 33.33L43.5501 29.5097C43.5501 26.5722 44.1868 24.2441 45.4602 22.5253C46.7337 20.8066 49.3079 19.7832 53.1829 19.455L53.1829 22.1269C50.6673 22.3457 48.9641 23.455 48.0735 25.455C47.5891 26.5488 47.3469 28.0644 47.3469 30.0019L47.3469 32.6269C47.3469 34.9707 47.0579 36.7675 46.4798 38.0175C45.4329 40.2832 43.4016 41.5566 40.386 41.8378C43.386 42.1035 45.4173 43.416 46.4798 45.7753C47.0579 47.0722 47.3469 48.8378 47.3469 51.0722L47.3469 54.6113Z" fill="url(#LinearGradient)" fill-rule="nonzero" opacity="1" stroke="none"/>
<path d="M25.2517 53.0467C27.9235 52.9217 29.7673 51.9452 30.7829 50.1171C31.3142 49.1796 31.5798 48.0936 31.5798 46.8592C31.5798 44.9061 30.861 43.4217 29.4235 42.4061C28.5954 41.8124 27.2048 41.2499 25.2517 40.7186L25.2517 53.0467ZM17.3063 30.4296C17.3063 31.9764 17.8181 33.1874 18.8415 34.0624C19.8649 34.9374 21.2438 35.5467 22.9782 35.8905L22.9782 24.8749C20.9313 24.953 19.4743 25.578 18.6071 26.7499C17.7399 27.9217 17.3063 29.1483 17.3063 30.4296ZM13.0876 30.7108C13.0876 28.3358 13.9587 26.1952 15.7009 24.2889C17.4431 22.3827 19.8845 21.4139 23.0251 21.3827L23.0251 18.2655L25.2517 18.2655L25.2517 21.3358C28.361 21.5546 30.7478 22.4725 32.4118 24.0897C34.0759 25.7069 34.947 27.8436 35.0251 30.4999L30.9235 30.4999C30.8142 29.3124 30.4938 28.2889 29.9626 27.4296C28.9782 25.8514 27.4079 25.0233 25.2517 24.9452L25.2517 36.3358C28.8767 37.3514 31.3376 38.3046 32.6345 39.1952C34.7438 40.6639 35.7985 42.8358 35.7985 45.7108C35.7985 49.8671 34.447 52.8202 31.7438 54.5702C30.2438 55.5389 28.0798 56.1796 25.2517 56.4921L25.2517 61.0389L23.0251 61.0389L23.0251 56.4921C18.4782 56.1952 15.3923 54.5858 13.7673 51.6639C12.8767 50.0858 12.4313 47.953 12.4313 45.2655L16.5798 45.2655C16.7048 47.4061 17.0407 48.9686 17.5876 49.953C18.5563 51.7186 20.3532 52.7108 22.9782 52.9296L22.9782 40.1561C19.6032 39.5155 17.111 38.4452 15.5017 36.9452C13.8923 35.4452 13.0876 33.3671 13.0876 30.7108Z" fill="url(#LinearGradient_2)" fill-rule="nonzero" opacity="1" stroke="none"/>
<path d="M67.2931 41.8378C64.2931 41.5566 62.2697 40.291 61.2228 38.041C60.6447 36.791 60.3556 34.9863 60.3556 32.6269L60.3556 30.0019C60.3556 27.9394 60.1134 26.3769 59.6291 25.3144C58.7541 23.4082 57.0509 22.3457 54.5197 22.1269L54.5197 19.455C58.5509 19.7832 61.2853 21.0332 62.7228 23.205C63.6603 24.5957 64.1291 26.6972 64.1291 29.5097L64.1291 33.33C64.1291 35.08 64.3947 36.4394 64.9259 37.4082C65.8947 39.1738 67.7619 40.205 70.5275 40.5019L70.5275 43.1738C67.7775 43.455 65.9103 44.5097 64.9259 46.3378C64.3947 47.3378 64.1291 48.6738 64.1291 50.3457L64.1291 55.1738C64.1291 58.33 63.2189 60.5644 61.3986 61.8769C59.5783 63.1894 57.2853 63.9941 54.5197 64.291L54.5197 61.5488C56.1916 61.33 57.5822 60.6621 58.6916 59.5449C59.8009 58.4277 60.3556 56.7832 60.3556 54.6113L60.3556 51.0722C60.3556 48.8222 60.6447 47.0566 61.2228 45.7753C62.2853 43.416 64.3087 42.1035 67.2931 41.8378Z" fill="url(#LinearGradient_3)" fill-rule="nonzero" opacity="1" stroke="none"/>
<path d="M8.77217 20.688C8.16572 20.8022 7.73945 21.2417 7.49336 22.0063C7.37031 22.3843 7.30879 22.7578 7.30879 23.127C7.30879 23.1709 7.31098 23.2083 7.31538 23.239C7.31977 23.2698 7.32636 23.3379 7.33515 23.4434L8.77217 23.4434L8.77217 26.3174L5.96406 26.3174L5.96406 23.6675C5.96406 22.3667 6.22334 21.3647 6.74189 20.6616C7.26045 19.9585 7.9372 19.5542 8.77217 19.4487L8.77217 20.688ZM13.215 20.688C12.7316 20.7671 12.3647 21.0396 12.1142 21.5054C11.8637 21.9712 11.7385 22.5073 11.7385 23.1138C11.7385 23.1665 11.7407 23.2192 11.7451 23.272C11.7495 23.3247 11.7604 23.3818 11.778 23.4434L13.215 23.4434L13.215 26.3174L10.3937 26.3174L10.3937 23.6675C10.3937 22.6216 10.6135 21.6877 11.0529 20.866C11.4924 20.0442 12.2131 19.5718 13.215 19.4487L13.215 20.688Z" fill="#43981f" fill-rule="nonzero" opacity="1" stroke="none"/>
<path d="M69.9668 24.8789C70.626 24.7559 71.061 24.2725 71.272 23.4287C71.395 22.9277 71.439 22.4927 71.4038 22.1235L69.9668 22.1235L69.9668 19.2495L72.7881 19.2495L72.7881 21.8994C72.7881 22.9453 72.5728 23.8791 72.1421 24.7009C71.7114 25.5227 70.9863 25.9951 69.9668 26.1182L69.9668 24.8789ZM65.5371 24.8789C66.1963 24.7559 66.6357 24.2725 66.8555 23.4287C66.9785 22.9277 67.0181 22.4927 66.9741 22.1235L65.5371 22.1235L65.5371 19.2495L68.3452 19.2495L68.3452 21.8994C68.3452 22.9453 68.1299 23.8748 67.6992 24.6877C67.2686 25.5007 66.5479 25.9775 65.5371 26.1182L65.5371 24.8789Z" fill="#43981f" fill-rule="nonzero" opacity="1" stroke="none"/>
<g fill="#ffffff" opacity="1" stroke="none">
<path d="M63.9318 72.714L61.2804 72.714L60.7824 74.1935L59.2101 74.1935L61.7785 66.9962L63.4777 66.9962L66.0265 74.1935L64.3957 74.1935L63.9318 72.714ZM63.5119 71.4737L62.6134 68.6417L61.6857 71.4737L63.5119 71.4737Z"/>
<path d="M68.3166 74.1935L66.9152 74.1935L66.9152 66.9962L69.1027 66.9962L70.4113 72.6554L71.7101 66.9962L73.8732 66.9962L73.8732 74.1935L72.4718 74.1935L72.4718 69.3253C72.4718 69.1853 72.4735 68.9892 72.4767 68.7369C72.48 68.4846 72.4816 68.2901 72.4816 68.1534L71.1193 74.1935L69.6593 74.1935L68.3068 68.1534C68.3068 68.2901 68.3084 68.4846 68.3117 68.7369C68.3149 68.9892 68.3166 69.1853 68.3166 69.3253L68.3166 74.1935Z"/>
</g>
</g>
</svg>
