<?xml version="1.0" encoding="UTF-8" standalone="no"?>
<!DOCTYPE svg PUBLIC "-//W3C//DTD SVG 1.1//EN" "http://www.w3.org/Graphics/SVG/1.1/DTD/svg11.dtd">
<!-- Created with Vectornator (http://vectornator.io/) -->
<svg height="80.0pt" stroke-miterlimit="10" style="fill-rule:nonzero;clip-rule:evenodd;stroke-linecap:round;stroke-linejoin:round;" version="1.1" viewBox="0 0 80 80" width="80.0pt" xml:space="preserve" xmlns="http://www.w3.org/2000/svg" xmlns:xlink="http://www.w3.org/1999/xlink">
<defs>
<radialGradient cx="0" cy="0" gradientTransform="matrix(91.9728 0 0 -92.0222 77.6577 2.95089)" gradientUnits="userSpaceOnUse" id="RadialGradient" r="1">
<stop offset="0" stop-color="#e44857"/>
<stop offset="0.47" stop-color="#c711e1"/>
<stop offset="1" stop-color="#7f52ff"/>
</radialGradient>
<linearGradient gradientTransform="matrix(30.7048 0 0 30.7048 36.6829 31.6261)" gradientUnits="userSpaceOnUse" id="LinearGradient" x1="0" x2="1" y1="0" y2="0">
<stop offset="0" stop-color="#ff912f"/>
<stop offset="1" stop-color="#000000"/>
</linearGradient>
<linearGradient gradientTransform="matrix(30.7048 0 0 30.7048 9.43136 32.6162)" gradientUnits="userSpaceOnUse" id="LinearGradient_2" x1="0" x2="1" y1="0" y2="0">
<stop offset="0.298868" stop-color="#ff912f"/>
<stop offset="1" stop-color="#000000"/>
</linearGradient>
<linearGradient gradientTransform="matrix(30.7048 0 0 30.7048 52.0353 31.6261)" gradientUnits="userSpaceOnUse" id="LinearGradient_3" x1="0" x2="1" y1="0" y2="0">
<stop offset="0" stop-color="#ff912f"/>
<stop offset="1" stop-color="#000000"/>
</linearGradient>
</defs>
<path d="M0 0L80 0L80 80L0 80L0 0Z" fill="url(#RadialGradient)" fill-rule="nonzero" opacity="1" stroke="none"/>
<clipPath id="ArtboardFrame">
<rect height="80" width="80" x="0" y="0"/>
</clipPath>
<g clip-path="url(#ArtboardFrame)" id="Layer-1">
<path d="M1331.77 821.674L2376.32 821.674L2376.32 2347.83L1331.77 2347.83L1331.77 821.674Z" fill="#000002" fill-rule="nonzero" opacity="1" stroke="none"/>
<path d="M1213.54 758.11L1481.97 758.11L1481.97 948.005L1213.54 948.005L1213.54 758.11Z" fill="#000002" fill-rule="nonzero" opacity="1" stroke="none"/>
<path d="M75 75L5 75L5 5L75 5L75 75Z" fill="#000002" fill-rule="nonzero" opacity="1" stroke="none"/>
<path d="M72.9124 7.49409L80 0" fill="none" opacity="1" stroke="#000002" stroke-linecap="butt" stroke-linejoin="round" stroke-width="1"/>
<path d="M72.9124 72.3869L80 80" fill="none" opacity="1" stroke="#000002" stroke-linecap="butt" stroke-linejoin="round" stroke-width="1"/>
<path d="M47.3469 50.6113C47.3469 53.0175 47.9563 54.7324 49.1751 55.7558C50.3938 56.7792 51.7298 57.3769 53.1829 57.5488L53.1829 60.291C50.4016 60.0097 48.1009 59.1933 46.2805 57.8417C44.4602 56.4902 43.5501 54.2675 43.5501 51.1738L43.5501 46.3457C43.5501 44.6425 43.2844 43.2988 42.7532 42.3144C41.7844 40.5175 39.9251 39.4707 37.1751 39.1738L37.1751 36.5019C39.9407 36.1738 41.8001 35.1503 42.7532 33.4316C43.2844 32.4785 43.5501 31.1113 43.5501 29.33L43.5501 25.5097C43.5501 22.5722 44.1868 20.2441 45.4602 18.5253C46.7337 16.8066 49.3079 15.7832 53.1829 15.455L53.1829 18.1269C50.6673 18.3457 48.9641 19.455 48.0735 21.455C47.5891 22.5488 47.3469 24.0644 47.3469 26.0019L47.3469 28.6269C47.3469 30.9707 47.0579 32.7675 46.4798 34.0175C45.4329 36.2832 43.4016 37.5566 40.386 37.8378C43.386 38.1035 45.4173 39.416 46.4798 41.7753C47.0579 43.0722 47.3469 44.8378 47.3469 47.0722L47.3469 50.6113Z" fill="url(#LinearGradient)" fill-rule="nonzero" opacity="1" stroke="none"/>
<path d="M25.2517 49.0467C27.9235 48.9217 29.7673 47.9452 30.7829 46.1171C31.3142 45.1796 31.5798 44.0936 31.5798 42.8592C31.5798 40.9061 30.861 39.4217 29.4235 38.4061C28.5954 37.8124 27.2048 37.2499 25.2517 36.7186L25.2517 49.0467ZM17.3063 26.4296C17.3063 27.9764 17.8181 29.1874 18.8415 30.0624C19.8649 30.9374 21.2438 31.5467 22.9782 31.8905L22.9782 20.8749C20.9313 20.953 19.4743 21.578 18.6071 22.7499C17.7399 23.9217 17.3063 25.1483 17.3063 26.4296ZM13.0876 26.7108C13.0876 24.3358 13.9587 22.1952 15.7009 20.2889C17.4431 18.3827 19.8845 17.4139 23.0251 17.3827L23.0251 14.2655L25.2517 14.2655L25.2517 17.3358C28.361 17.5546 30.7478 18.4725 32.4118 20.0897C34.0759 21.7069 34.947 23.8436 35.0251 26.4999L30.9235 26.4999C30.8142 25.3124 30.4938 24.2889 29.9626 23.4296C28.9782 21.8514 27.4079 21.0233 25.2517 20.9452L25.2517 32.3358C28.8767 33.3514 31.3376 34.3046 32.6345 35.1952C34.7438 36.6639 35.7985 38.8358 35.7985 41.7108C35.7985 45.8671 34.447 48.8202 31.7438 50.5702C30.2438 51.5389 28.0798 52.1796 25.2517 52.4921L25.2517 57.0389L23.0251 57.0389L23.0251 52.4921C18.4782 52.1952 15.3923 50.5858 13.7673 47.6639C12.8767 46.0858 12.4313 43.953 12.4313 41.2655L16.5798 41.2655C16.7048 43.4061 17.0407 44.9686 17.5876 45.953C18.5563 47.7186 20.3532 48.7108 22.9782 48.9296L22.9782 36.1561C19.6032 35.5155 17.111 34.4452 15.5017 32.9452C13.8923 31.4452 13.0876 29.3671 13.0876 26.7108Z" fill="url(#LinearGradient_2)" fill-rule="nonzero" opacity="1" stroke="none"/>
<path d="M67.2931 37.8378C64.2931 37.5566 62.2697 36.291 61.2228 34.041C60.6447 32.791 60.3556 30.9863 60.3556 28.6269L60.3556 26.0019C60.3556 23.9394 60.1134 22.3769 59.6291 21.3144C58.7541 19.4082 57.0509 18.3457 54.5197 18.1269L54.5197 15.455C58.5509 15.7832 61.2853 17.0332 62.7228 19.205C63.6603 20.5957 64.1291 22.6972 64.1291 25.5097L64.1291 29.33C64.1291 31.08 64.3947 32.4394 64.9259 33.4082C65.8947 35.1738 67.7619 36.205 70.5275 36.5019L70.5275 39.1738C67.7775 39.455 65.9103 40.5097 64.9259 42.3378C64.3947 43.3378 64.1291 44.6738 64.1291 46.3457L64.1291 51.1738C64.1291 54.33 63.2189 56.5644 61.3986 57.8769C59.5783 59.1894 57.2853 59.9941 54.5197 60.291L54.5197 57.5488C56.1916 57.33 57.5822 56.6621 58.6916 55.5449C59.8009 54.4277 60.3556 52.7832 60.3556 50.6113L60.3556 47.0722C60.3556 44.8222 60.6447 43.0566 61.2228 41.7753C62.2853 39.416 64.3087 38.1035 67.2931 37.8378Z" fill="url(#LinearGradient_3)" fill-rule="nonzero" opacity="1" stroke="none"/>
<g fill="#ffffff" opacity="1" stroke="none">
<path d="M63.9318 72.714L61.2804 72.714L60.7824 74.1935L59.2101 74.1935L61.7785 66.9962L63.4777 66.9962L66.0265 74.1935L64.3957 74.1935L63.9318 72.714ZM63.5119 71.4737L62.6134 68.6417L61.6857 71.4737L63.5119 71.4737Z"/>
<path d="M68.3166 74.1935L66.9152 74.1935L66.9152 66.9962L69.1027 66.9962L70.4113 72.6554L71.7101 66.9962L73.8732 66.9962L73.8732 74.1935L72.4718 74.1935L72.4718 69.3253C72.4718 69.1853 72.4735 68.9892 72.4767 68.7369C72.48 68.4846 72.4816 68.2901 72.4816 68.1534L71.1193 74.1935L69.6593 74.1935L68.3068 68.1534C68.3068 68.2901 68.3084 68.4846 68.3117 68.7369C68.3149 68.9892 68.3166 69.1853 68.3166 69.3253L68.3166 74.1935Z"/>
</g>
</g>
</svg>
